<?xml version="1.0" encoding="UTF-8" standalone="no"?>
<!-- Created with Inkscape (http://www.inkscape.org/) -->

<svg
   xmlns:dc="http://purl.org/dc/elements/1.1/"
   xmlns:cc="http://creativecommons.org/ns#"
   xmlns:rdf="http://www.w3.org/1999/02/22-rdf-syntax-ns#"
   xmlns:svg="http://www.w3.org/2000/svg"
   xmlns="http://www.w3.org/2000/svg"
   version="1.1"
   width="416.25"
   height="530"
   id="svg3004"
   xml:space="preserve"><metadata
     id="metadata3010"><rdf:RDF><cc:Work
         rdf:about=""><dc:format>image/svg+xml</dc:format><dc:type
           rdf:resource="http://purl.org/dc/dcmitype/StillImage" /><dc:title></dc:title></cc:Work></rdf:RDF></metadata><defs
     id="defs3008" /><g
     transform="matrix(1.25,0,0,-1.25,0,530)"
     id="g3012"><g
       transform="scale(0.1,0.1)"
       id="g3014"><path
         d="m 3012.28,3816.19 c 7,-1.5 14,-3.5 20.99,-5 70.48,-16.49 117.46,-29.99 140.95,-39.99 1,-0.5 2,-0.5 3.49,0 11.5,3 33.49,-4.49 65.98,-22.99 l 0.5,0 c 11.49,-8.5 21.49,-18.49 29.99,-28.99 3.5,-5.49 6.5,-10.49 9.5,-14.99 -26.5,-62.48 -49.98,-118.95 -71.48,-168.93 l 60.48,0 c 39.48,76.97 58.98,131.45 59.48,162.93 0.49,17.5 -2.5,28.99 -9,34.49 -2.5,5.49 -6.5,11.49 -11.5,16.99 -15.99,35.49 -52.48,61.48 -108.95,77.47 -25.5,7.5 -55.98,12.5 -91.47,16 -5.99,0.5 -11.49,0.5 -16.49,1 -133.45,30.48 -231.41,53.47 -293.38,69.47 -12.5,3.99 -24.99,7.99 -37.99,11.99 -57.47,17.99 -135.94,55.98 -234.9,114.46 -6.5,3.99 -13,7.99 -19.5,11.99 -29.98,17.99 -61.47,37.48 -94.96,58.98 -38.48,24.99 -87.96,57.97 -148.44,98.46 -22.49,14.49 -40.48,25.49 -52.98,32.49 -0.5,0.5 -1.5,0.5 -2,0.5 -0.5,0.5 -1.49,0.5 -1.99,0 -4.5,-1.5 -10,-3 -15.5,-5 -13.49,-3.5 -23.49,-6.5 -29.99,-8 -1,-0.5 -2,-1 -2.5,-2 -0.5,-0.5 -1,-1 -1,-2 -1,-1 -2,-2.5 -3,-4 -22.99,-5 -42.98,-26.48 -59.47,-64.47 -28.49,-64.98 -48.48,-104.96 -59.98,-119.95 -22.49,-27.99 -48.98,-78.47 -78.97,-150.94 -26.49,-67.48 -39.48,-101.96 -38.98,-102.96 0,-0.5 0,-0.5 0,-1 0.5,-1.5 0.5,-3.5 1,-5 0.5,-1.5 1,-2.5 2,-3 4.5,-3.5 8.49,-6.5 12.49,-9.49 l 0.5,-0.5 c 0,0 0,0 0.5,-0.5 15,-12.5 25.49,-23.5 31.49,-33.49 0.5,-0.5 1,-1.5 2,-2 0.5,-0.5 1.5,-0.5 2.5,-0.5 0.5,0 1.5,0 2.5,0 0.5,-0.5 1,-0.5 2,0 60.97,-48.48 135.94,-84.97 225.41,-109.45 16.49,-4.5 52.48,-13.5 108.95,-26 0.5,-0.5 1.5,-0.5 2,-0.5 0.5,0 0.5,0 1,-0.49 l 0.5,0 c 10.5,-2.5 21.99,-5 33.99,-7.5 48.98,-11 90.46,-21.99 124.45,-32.49 -2.5,-5 -5.5,-10.49 -8,-15.99 l 31.49,0 c 1,2.5 2,4.5 3,7 5.49,-2 11.49,-4.5 17.99,-7 l 97.96,0 c -32.99,17.49 -62.98,29.49 -90.46,36.98 -11,3.5 -52.48,16 -124.45,38.49 109.45,216.41 169.43,335.86 180.43,358.85 39.48,-21.49 75.47,-39.48 108.45,-53.98 20.49,-9.49 38.98,-17.49 55.48,-23.98 26.49,-9.5 61.97,-20.5 106.96,-32.99 10.49,-3 21.99,-6 33.98,-9.5 -32.98,-60.47 -61.47,-114.45 -85.96,-161.43 -13.99,-12.5 -31.49,-46.99 -52.98,-103.96 l 0.5,0.5 c -9,-18.49 -16.5,-34.49 -22.99,-48.98 l 151.94,0 c 7.99,20.49 16.99,43.48 26.99,68.97 8.99,17.49 30.98,56.48 65.47,115.95 23.99,43.99 38.49,75.98 43.98,95.97 z m -620.25,267.39 c 31.49,-19.99 60.98,-38.99 89.47,-56.48 -34.49,-56.48 -76.47,-132.94 -124.95,-229.91 -38.99,-76.97 -62.98,-126.95 -71.48,-150.44 -16.49,5 -33.48,10.5 -50.98,16 l -0.5,0 -144.44,42.48 c -45.98,13 -81.97,31.99 -107.95,57.48 -4,4 -8,7.99 -11.5,11.49 -0.5,0.5 -0.5,1 0,1.5 0.5,11.5 13,44.48 37.48,97.96 23.5,52.98 46.49,97.96 67.98,134.95 l 0.5,0 c 5.5,10.5 28.48,52.98 67.97,127.95 6.5,13.49 12.49,24.99 17.99,34.98 12.5,12 24.99,21.5 37.49,28.99 1,0.5 1.5,1.5 2,2.5 0.5,0.5 0.5,1 0.5,1.5 20.49,-11.49 52.48,-30.49 95.96,-56.98 l -0.5,0 c 51.98,-34.98 83.47,-56.48 94.96,-63.97"
         id="path3016"
         style="fill:#000000;fill-opacity:1;fill-rule:nonzero;stroke:none" /><path
         d="m 2853.35,3480.32 c 6.49,15.49 13.99,33.49 22.49,54.98 l -151.94,0 c -10,-21.99 -16.99,-39.49 -20.99,-51.98 -14.5,9.5 -26.99,17.49 -36.49,22.99 -17.99,10.99 -34.99,20.49 -51.48,28.99 l -97.96,0 c 22.49,-9 46.48,-20 71.97,-32.49 -26.49,-45.48 -55.48,-97.96 -86.96,-157.43 -7.5,4.49 -18,8.99 -31.49,12.99 -17.49,5.5 -31.99,9 -42.98,10.49 20.99,50.98 43.98,106.46 68.47,166.44 l -31.49,0 c -27.99,-52.98 -60.47,-122.95 -96.96,-210.42 -18.99,-44.48 -35.49,-83.97 -49.98,-118.45 -0.5,0 -0.5,0 -0.5,-0.5 0,-0.5 0,-0.5 0,-0.5 -20.49,-50.48 -35.49,-85.97 -45.98,-105.46 -0.5,-0.5 -1,-1.5 -0.5,-2.5 0,-0.5 0,-1 0,-1.5 -8.5,-19.49 -14.99,-34.48 -18.99,-43.98 -42.48,-86.96 -78.47,-161.44 -108.46,-223.91 l 39.48,0 c 26.5,56.48 56.98,120.45 90.47,192.92 l 0,-0.5 c 8.49,18 18.99,39.49 30.49,63.98 6.99,-2.5 15.49,-6 24.98,-10 12.5,-5.5 22.5,-9.99 30.49,-12.99 -26.49,-53.98 -53.97,-111.46 -82.46,-171.94 -10.5,-21.48 -19.99,-41.98 -28.99,-61.47 l 52.98,0 c 19.49,45.48 40.98,94.46 63.97,147.94 l 0,0.5 c 16.5,39.98 63.48,136.95 141.94,290.39 63.48,124.45 98.47,195.92 105.46,213.91 2.5,1.5 4.5,4 7,6.5 46.48,-24.49 96.46,-54.98 150.94,-91.46 0,-1 0,-2 0,-2.5 0,-1 0,-2 0.5,-3 0.5,-0.5 1.5,-1 2.5,-1.5 0.5,-0.5 1.5,-0.5 3,-0.5 1.5,0.5 2.5,0.5 4,1 22.99,-15.5 49.48,-35.49 78.96,-59.98 37.49,-30.49 59.98,-48.98 66.98,-54.48 42.48,-31.49 83.47,-49.98 122.95,-55.47 5.5,-0.5 11.49,-1 17.49,-1.5 0.5,0.5 1.5,0.5 2.5,0 19.49,0 33.99,4.49 43.48,13.49 0.5,0.5 1,1.5 1.5,2.5 11.5,8.99 21.49,22.49 29.49,39.98 5,11.5 13.5,32.49 24.99,61.98 11.49,29.49 24.49,55.98 37.98,79.47 26.5,44.98 48.49,84.96 66.48,119.95 l -60.48,0 c -67.47,-155.44 -113.45,-246.9 -137.44,-274.39 -66.47,22.49 -154.44,71.97 -263.9,148.44 14,15.49 27.99,38.98 41.99,70.97 l 0.5,0 z m -474.31,-385.35 3,1 0.5,-2.99 -2,0.99 0,0.5 -1.5,0.5"
         id="path3018"
         style="fill:#000000;fill-opacity:1;fill-rule:nonzero;stroke:none" /><path
         d="m 1857.75,3487.82 c -19.5,2 -42.49,0.5 -69.98,-4 -23.49,-4.5 -37.48,-7 -41.48,-7 -99.96,8.5 -174.93,13 -224.91,14 -16.99,0.5 -27.99,-2.5 -33.49,-8 -16.49,-15 -24.99,-51.98 -25.99,-110.96 -0.5,-8.49 0,-13.49 1.5,-14.99 1.5,-3.5 6.5,-5 14.5,-5.5 1.99,0 13.49,0 34.98,0 -28.49,-52.48 -42.98,-89.96 -43.48,-111.95 -0.5,-16 4.5,-27.49 14.49,-34.99 l 0,-0.5 c -0.5,-6.5 12,-11.5 37.99,-14.49 -0.5,-5.5 0,-11 1,-16.5 -9,-110.45 -16.99,-190.92 -23.99,-241.4 -5,-34.99 -12.5,-69.47 -22.49,-103.46 l 28.49,0 c 26.49,89.47 40.48,175.93 41.98,259.9 1,53.48 1,83.96 0.5,90.46 0.5,3.5 1,6 1,8.5 12.99,-1 27.99,-2 45.48,-2.5 35.49,-1.5 74.47,-2 115.95,-2 81.97,-1.5 123.45,-2 123.95,-2.5 l 0.5,0 c 7,0.5 13.5,1 20,1.5 -1,-3.5 -2,-7 -2.5,-11.49 -2.5,-13.5 -4,-23 -4,-27.49 -0.5,-13 -0.5,-23.5 0,-31.49 -3.5,-13.5 -5.5,-37.99 -6.5,-73.47 l 0,-0.5 c 5,-48.48 23.49,-118.46 54.98,-208.92 l 51.98,0 c -6,14.49 -10.5,25.99 -13.5,34.99 -10.99,30.48 -20.99,66.47 -29.98,107.45 -4,17.5 -3.5,33.99 1,50.48 0.5,1 0.5,2 0.5,2.5 -1.5,6.5 -2.5,13.5 -2.5,21.49 0.5,17 1,29.49 1,37.49 -0.5,41.48 -1,65.47 -2.5,72.47 l 0.5,17.99 c 0,1 0,1.5 -0.5,2 -0.5,1 -0.5,1.5 -1,2 -3.5,3 -6.5,6 -10,8.5 4,0.5 8,1.5 11.5,2.5 0.5,0 1,0 1.5,0.5 7.49,4.49 15.49,9.49 23.98,14.49 7.5,5.5 11.5,12 11.5,19.49 0,4.5 -3.5,19.49 -10,44.49 -6.49,20.99 -9.99,33.98 -10.99,38.98 3.5,3 5,5.5 4.5,7 0,0.5 0,1 0,1.5 l -11,35.98 c 0.5,-0.5 0.5,-0.5 1,-0.5 0.5,-0.5 1.5,-1 2.5,-1 9.5,0 18.49,0 27.99,0 1.5,0 2.5,0.5 3.5,1 0.5,0.5 1,1.5 1.5,3 l 3,14.49 c 0,0.5 0,0.5 0,0.5 1.5,73.48 -29.99,113.46 -93.96,119.96 z m -32.49,-35.99 c 15.99,-1 30.49,-6 42.98,-14.99 -3.5,-6.5 -5,-13.5 -5,-20.49 -0.5,-6.5 2,-16.5 7,-29.99 -87.97,0.5 -209.42,2 -364.35,4.5 3.49,23.99 6.99,44.48 9.49,60.97 1.5,2.5 4,4 8.5,4 43.98,-1 110.45,-5.5 198.92,-13.99 l 0.5,0 c 10.49,0 27.49,2 51.98,5.99 21.99,3.5 38.48,4.5 49.98,4 z m 26.49,-120.95 c -0.5,-15.49 3.5,-35.99 12.49,-60.48 l 0,-6.99 c 0,-0.5 0,-1 0.5,-1.5 2.5,-9.5 4,-16.5 4,-20 -0.5,-8.99 -9.99,-17.49 -27.99,-25.98 -78.47,2.5 -140.94,4.5 -187.42,5 -44.99,0.49 -80.47,0.49 -106.96,-1 -1.5,3.49 -3,5.99 -3.5,6.49 -1,1 -2,1.5 -3,1.5 -14.49,1.5 -25.49,4 -32.49,6.5 3,13.99 17.5,52.98 42.99,116.45 61.47,-0.5 162.43,-1 302.38,-1.5 -0.5,-4.49 -1,-10.99 -1,-18.49"
         id="path3020"
         style="fill:#000000;fill-opacity:1;fill-rule:nonzero;stroke:none" /><path
         d="m 2833.86,2782.6 c -6.5,3.5 -18,5 -34.49,5.5 -20.49,0.5 -64.48,-13.5 -131.45,-40.99 -64.47,-26.49 -111.46,-39.48 -139.94,-39.48 -18.5,1.5 -36.49,5.99 -53.98,13.49 -33.99,14.5 -50.98,36.49 -50.48,66.98 0,6.99 0.5,12.99 1,18.49 0,0.5 0,0.5 0.5,1 -0.5,1.5 -0.5,3.5 -0.5,5 0,5 0.5,9.99 1.5,15.49 l -48.98,0 c -0.5,-3.5 -0.5,-6.5 -0.5,-9.99 0,-5 0.5,-9.5 1,-13 l 0,-0.5 c -0.5,-0.5 -1,-1.5 -0.5,-2 -0.5,-4.5 1,-15.49 4.5,-32.48 1.5,-12 3,-20 4.5,-24.5 l -0.5,-6.99 c -0.5,-0.5 -0.5,-1 -0.5,-1.5 8.49,-47.48 15.49,-107.46 20.98,-178.93 1.5,-20.49 4.5,-34.99 8,-44.48 -27.49,-8.5 -57.47,-17.5 -89.46,-27.49 -14,-4.5 -28.49,-8.5 -43.49,-12 l 127.95,0 c 17.5,5 37.99,11 61.48,17.49 65.97,20.5 122.45,39.99 169.43,59.48 71.47,29.49 124.95,59.98 160.94,90.47 -2.5,-9 -4.5,-18.5 -7,-28.99 -14.49,-54.48 -26.49,-100.46 -35.99,-138.45 l 39.49,0 c 22.49,88.47 44.98,173.93 67.47,256.4 0,0.5 0,0.5 0,1 0.5,14.49 -4,23.49 -12.49,27.49 -3.5,11.5 -9.5,18.99 -18.99,23.49 l 0.5,0 z m -404.34,-81.97 c 5.49,-4 11.99,-7.49 18.99,-10.99 22.99,-10.5 49.98,-16.5 80.47,-17 36.48,-0.5 87.46,13 152.43,40.48 62.48,27 101.47,40.49 116.46,39.99 0.5,0 1,0 1.5,0 6.5,2 10.99,1.5 13.99,-1 3,-2.5 4.5,-8 4.5,-15.99 -1.5,-47.98 -66.47,-98.46 -194.92,-151.44 -36.49,-14.5 -93.46,-34.49 -171.43,-59.48 0,44.98 -6,95.96 -17.49,152.94 -1.5,8 -3,15.49 -4.5,22.49"
         id="path3022"
         style="fill:#000000;fill-opacity:1;fill-rule:nonzero;stroke:none" /><path
         d="m 2300.57,2828.08 -52.98,0 c -71.47,-151.94 -118.45,-257.4 -140.95,-315.87 -8.99,21.99 -22.49,48.98 -40.48,80.47 -0.5,0.5 -0.5,0.5 -0.5,1 26.99,49.48 65.98,127.44 116.95,234.4 l -39.48,0 c -46.48,-95.46 -78.47,-162.44 -96.96,-200.92 -14.49,25.49 -30.49,53.48 -48.98,84.47 0,0.5 0,0.5 0,1 -21.49,48.48 -37.49,86.96 -48.98,115.45 l -51.98,0 c 16.99,-47.98 37.48,-101.96 61.97,-161.94 35.49,-87.96 61.98,-151.93 80.47,-191.92 l 97.96,0 c 29.49,51.98 84.47,169.94 163.94,353.86"
         id="path3024"
         style="fill:#000000;fill-opacity:1;fill-rule:nonzero;stroke:none" /><path
         d="m 1504.89,2828.08 -28.49,0 c -14.5,-47.98 -33.99,-94.46 -58.48,-139.94 -16.49,-26.99 -31.49,-51.48 -44.48,-73.47 -23.99,51.97 -59.98,122.95 -107.46,213.41 l -44.48,0 c 69.97,-133.45 113.95,-215.91 131.45,-247.4 -18,-30.99 -31.49,-55.48 -39.99,-73.97 -0.5,0 -0.5,0 -1,-0.5 -2,-2 -5.5,-10 -10.49,-23.49 -1.5,-3 -2.5,-6 -3,-8.5 l 41.48,0 c 5,8 11,17.99 18.5,29.49 26.98,43.49 52.47,90.47 75.96,140.45 28.99,62.47 52.48,123.95 70.48,183.92"
         id="path3026"
         style="fill:#000000;fill-opacity:1;fill-rule:nonzero;stroke:none" /><path
         d="m 993.59,2828.08 -45.981,0 c 14.493,-20.99 21.493,-47.48 20.993,-78.97 -1.5,-48.48 -42.485,-72.47 -122.954,-70.97 -25.488,0.5 -68.472,8 -128.449,21.99 -60.972,14.49 -95.461,21.99 -102.957,21.99 -17.492,5.5 -30.988,4 -39.984,-4.5 -9.496,-7.49 -13.992,-21.49 -14.492,-41.98 -0.5,-23.49 4.496,-50.48 15.992,-81.46 l 0,-0.5 c 14.992,-37.49 26.488,-66.98 34.984,-89.47 4,-10 7.5,-19.99 10.996,-29.99 l 41.985,0 c -5,15.49 -10.496,29.99 -16.993,44.48 -8.996,20.5 -20.992,47.99 -36.488,82.47 l 0.5,0 c -1,2.5 -1.996,4.5 -2.496,6.5 45.981,-34.49 134.945,-68.97 266.891,-102.46 44.484,-11.5 88.965,-21.49 134.453,-30.99 l 214.41,0 c -7.5,0.5 -14.5,1.5 -21.99,2.5 -41.49,4.5 -93.97,13.49 -156.94,26.99 -36.98,7.5 -66.972,14 -90.465,18.49 1.5,3.5 2.5,7 2.5,11.5 1.5,79.47 12.497,130.94 33.985,153.94 0,0.5 0.5,0.5 1,1 0.5,0.5 1,1.5 1.5,2.5 4.5,15.49 7.5,27.48 9.5,34.98 l -0.5,0 c 2,7 4,18.49 6,34.99 0,1 0,2 -0.5,3 -0.5,1 -1.5,1.5 -2,2 -1,23.49 -5,43.98 -12.5,61.97 z M 595.25,2685.64 c 0,2 1,3 3.5,3 l 0.5,0 c 3.496,0 8.996,-0.5 16.492,-1.5 l 0.5,0 c 4.996,0 34.985,-7 89.965,-21.5 l 0.5,0 c 60.973,-14.49 106.957,-21.98 138.441,-22.48 1,0 9.497,-0.5 25.993,-1 19.992,0.5 37.984,2.5 54.476,6.99 1,0.5 2,0.5 3,1 -10.496,-27.49 -15.496,-55.47 -15.996,-83.46 -0.5,-11.5 1.5,-22.99 5,-33.99 0.5,-1 1,-2 1.5,-3 -15.996,3.5 -24.992,5 -26.492,5 -67.473,12.5 -137.441,41.48 -209.914,86.96 -34.485,21.5 -63.477,42.49 -87.465,61.98 0,0.5 0,1.5 0,2"
         id="path3028"
         style="fill:#000000;fill-opacity:1;fill-rule:nonzero;stroke:none" /><path
         d="m 1287.97,2485.22 c -73.47,144.44 -131.45,258.39 -173.93,342.86 l -38.48,0 c 97.96,-194.92 158.43,-312.87 181.42,-353.86 l 36.99,0 c -2.5,5.5 -4.5,9 -6,11"
         id="path3030"
         style="fill:#000000;fill-opacity:1;fill-rule:nonzero;stroke:none" /><path
         d="m 1520.88,2411.75 c 98.96,-8.5 199.42,-14 301.88,-16 208.92,-3.5 381.85,16 518.79,58.48 12.5,4 34.99,10.5 67.47,19.99 l -127.95,0 c -44.98,-11.49 -93.46,-20.99 -145.94,-27.99 0,0.5 0,1 0,1.5 0.5,2 -1.5,7 -5.49,14.5 2,3.5 4.49,7.49 6.99,11.99 l -97.96,0 c 7.5,-15.99 13.5,-27.99 17.99,-36.48 -71.96,-6.5 -149.93,-8.5 -233.4,-7 -141.94,2.5 -305.38,13.49 -490.81,31.99 2,3 4.5,6.99 7.5,11.49 l -41.48,0 c -0.5,-0.5 -0.5,-1.5 -1,-2.5 -0.5,-0.5 -1.5,-1.5 -2,-2 -0.5,1.5 -1,3 -1.5,4.5 l -36.99,0 c 0.5,-1.5 1.5,-2.5 2,-4 -11.49,1.5 -23.49,2.5 -34.98,4 l -214.41,0 c 59.47,-12.49 120.45,-22.99 182.42,-32.49 l 0.5,0 c 95.46,-7.49 204.92,-17.49 328.37,-29.98 z m 560.28,26.49 2.49,1.5 1.5,-2.5 -1,0.5 -2.99,0.5"
         id="path3032"
         style="fill:#000000;fill-opacity:1;fill-rule:nonzero;stroke:none" /><path
         d="m 663.723,2474.22 -41.985,0 c 26.492,-77.47 38.985,-156.43 37.485,-236.9 -0.5,-38.49 -4.496,-77.47 -11.993,-116.96 l 30.985,0 c 11.996,51.98 17.996,91.97 18.496,120.46 1.496,85.46 -9.496,163.43 -32.988,233.4"
         id="path3034"
         style="fill:#000000;fill-opacity:1;fill-rule:nonzero;stroke:none" /><path
         d="m 2791.37,2450.23 c 2,8 4,16 6,23.99 l -39.49,0 c -4.49,-17.99 -8.99,-34.48 -12.49,-48.98 -29.49,-118.45 -49.48,-219.91 -59.98,-304.88 l 38.49,0 c 5.49,41.99 13.49,88.47 23.99,139.45 l 0,0.5 c 1,0.5 1.5,1 2,2 0.5,1 0.5,1.99 0,2.99 -0.5,1 -0.5,2 0,2.5 0,5 1.5,12 4,21 0.5,2.5 1.5,4.5 2,5.99 0.5,1.5 0.5,2.5 0,3 l -0.5,0.5 c 1.99,9.5 3.99,18.5 6.49,27.49 0,0.5 0,0.5 0,1 l 0,0.5 c 0,0.5 0,1 -0.5,1.5 0,0.5 0,0.5 -0.5,1 0.5,0.5 1,1.5 2,2.5 0.5,0.5 0.5,1 1,1.5 1,1.5 2,3 3.5,5 0.5,0.5 1,1.5 1,2.5 0,1.49 0,2.49 -0.5,2.99 -0.5,0.5 -1,1 -1.5,1.5 7.5,33.49 15.5,67.98 24.99,104.46"
         id="path3036"
         style="fill:#000000;fill-opacity:1;fill-rule:nonzero;stroke:none" /><path
         d="m 2426.02,2828.08 c 0.5,5 1.5,10 3,15.49 1.5,7.5 3.5,13 5.99,17.5 0.5,1 0.5,2 0.5,2.5 10.5,9.99 22.99,18.49 38.49,25.98 31.48,15.5 62.47,23 92.96,22.5 57.48,-1 120.45,-18.5 188.93,-51.98 l -0.5,0 c 16.49,-8.5 35.98,-19 58.47,-31.99 l 71.97,0 c -40.48,27.49 -82.96,50.98 -127.45,70.47 -69.97,31.49 -133.94,47.49 -191.92,48.49 -31.49,-1 -62.98,-7 -93.96,-18.5 -58.98,-21.49 -90.96,-54.98 -95.46,-100.46 l 48.98,0"
         id="path3038"
         style="fill:#000000;fill-opacity:1;fill-rule:nonzero;stroke:none" /><path
         d="m 2885.83,2828.08 -71.97,0 c 34.49,-20.49 75.47,-46.98 123.45,-79.47 81.97,-54.97 141.45,-92.46 178.93,-111.95 46.48,-23.99 89.96,-39.99 130.45,-47.48 -42.48,-23.49 -122.95,-69.48 -241.4,-137.45 -103.46,-59.48 -177.93,-102.96 -223.41,-130.44 -0.5,0.5 -1,0.5 -1.5,0.5 -1,0 -2,-0.5 -3,-1 -13.5,-8 -19.5,-14 -19,-18 -0.5,-0.5 -0.5,-1 0,-1.5 5.5,-14.99 8.5,-25.49 10,-31.99 0,0 0,0 0,-0.5 14.5,-50.48 31.99,-99.96 52.48,-148.44 l 46.98,0 c -24.49,55.48 -47.98,110.96 -70.47,165.94 44.48,25.49 119.45,69.47 224.41,130.95 27.99,14.99 85.47,41.98 171.93,80.46 l 0.5,0 c 70.47,35.49 108.46,65.48 112.95,88.97 4.5,2.5 8,6.5 10,12.99 0.5,1.5 0.5,2.5 0,4 -0.5,1.5 -1.5,2 -3,2.5 -79.46,31.49 -140.44,55.98 -182.93,72.97 -76.96,30.99 -138.44,65.47 -184.42,102.96 -19.99,16.49 -40.49,31.49 -60.98,45.98"
         id="path3040"
         style="fill:#000000;fill-opacity:1;fill-rule:nonzero;stroke:none" /><path
         d="m 1346.95,4042.59 c -15,54.98 -35.99,100.96 -62.48,137.45 -28.49,39.98 -57.47,59.98 -86.96,59.98 -28.99,1 -114.96,-36.99 -257.897,-114.46 -48.48,-26.99 -88.965,-49.98 -122.453,-68.47 -12.496,-1.5 -21.492,-7 -27.988,-15.5 -46.481,-25.98 -73.469,-40.48 -79.969,-43.98 -88.465,-42.48 -169.43,-75.47 -243.902,-98.46 -57.477,-12.49 -97.461,-23.49 -119.949,-32.49 -34.489,-5.49 -61.977,-11.49 -81.469,-17.99 -6.496,-2 -12.496,-4.49 -17.492,-7.49 -20.493,-4 -41.485,-10 -63.977,-18 l 0.5,0 c -16.492,-3.5 -32.484,-7.99 -48.98,-12.99 -70.4731,-21.49 -112.4535,-46.98 -125.44962,-76.47 -3.5,-4 -4.9961,-7.5 -4.9961,-11 0,-2 0,-4 0.5,-5.49 l 0,-0.5 c -0.5,-1.5 -0.5,-2.5 -0.5,-4 -1,-34.99 17.99222,-93.96 57.47652,-177.43 l 43.4802,0 c -6.4958,14.49 -13.9919,30.49 -22.488,47.98 l 0,-0.5 c -23.9922,55.98 -37.9882,96.96 -41.4843,123.45 29.4882,7.5 80.9653,29.49 155.4373,65.47 5.496,1 11.496,2 18.992,3 1.5,0.5 3,0.5 4.496,0.5 0.5,-0.5 1.5,-0.5 2.5,-1 0.5,-0.5 1.5,-0.5 2.5,0 42.485,12.5 78.969,22.99 110.457,31.99 18.493,-36.49 65.473,-126.95 139.942,-270.89 l 116.453,0 c -18.992,32.49 -40.48,71.47 -63.973,115.95 -5.996,11 -11.496,21.49 -16.992,31.49 l 0,0.5 c -31.488,80.47 -57.976,130.45 -80.469,150.94 18.993,5.5 30.989,9.5 35.485,11 58.476,20.98 136.945,56.97 235.406,108.45 l -0.5,0 c 4,2 25.492,13.49 63.977,33.99 33.984,-77.47 71.968,-156.44 114.453,-235.91 40.484,-76.47 67.472,-120.45 81.968,-132.44 -49.48,-14.5 -85.468,-25.5 -108.957,-33.99 -30.988,-11 -69.472,-27.49 -114.957,-49.98 l 84.469,0 c 14.492,6.5 27.488,11.49 39.485,15.99 0.5,-4.5 2,-9.49 3.996,-15.99 l 42.984,0 c -5.496,10.49 -10.996,19.49 -16.492,26.49 61.472,21.49 114.457,38.98 158.937,52.98 0.5,0 1.5,0 2.5,0 0.5,0.5 1.5,0.5 2,1 0.5,0.5 1,1.5 1.5,2.5 0.5,1 2.49,1.5 5.49,1 0.5,0 1,0 1.5,0 0.5,0 1,0 1.5,0.5 38.49,11.99 69.48,20.98 93.96,27.48 l 0.5,0 c 12.5,3.5 38.99,7.5 79.47,12 41.49,5 73.47,10.5 95.96,15.99 79.47,18.99 119.46,55.98 119.96,111.46 0.5,14.49 -16.5,58.48 -50.98,131.94 -36.49,77.47 -55.48,118.96 -56.48,123.95 z m -82.47,97.96 c 18.99,-32.98 35.49,-71.46 49.98,-115.45 1.5,-6.49 20.49,-45.98 56.48,-118.45 30.49,-62.47 45.98,-102.46 45.98,-120.95 -1.5,-25.49 -75.47,-59.98 -222.91,-102.96 -45.48,-12 -86.96,-22.99 -124.45,-33.49 -3,6.5 -8.5,14.5 -15.99,23.99 -13.5,15.5 -22.5,32.49 -27.49,49.98 -9.5,29.99 -29.49,67.48 -60.478,111.96 -54.477,109.45 -87.465,175.93 -99.961,199.42 -0.5,2.5 -1,4 -1.5,5 -0.5,0.5 -0.5,0.99 -0.5,1.49 28.492,15.5 60.476,32.49 96.464,51.98 138.445,74.97 216.915,112.46 235.405,111.96 21.49,-0.5 44.48,-21.99 68.97,-64.48 z m -229.91,-500.79 4.5,-4.5 -4.5,-3 -1,7 1,0.5 z m -48.976,-18.49 0.5,0 1.5,-3 -3.5,-1 0.5,5.99 1,-1.99"
         id="path3042"
         style="fill:#000000;fill-opacity:1;fill-rule:nonzero;stroke:none" /><path
         d="m 907.625,3535.3 -42.984,0 c 8.496,-30.49 32.488,-84.97 71.472,-163.44 -7.996,-2.5 -16.992,-5.99 -27.488,-10.49 -12.496,-5.5 -21.992,-10.5 -28.488,-15.99 -5.5,-2 -11.496,-4 -17.992,-6 -51.981,102.96 -82.969,159.93 -92.965,171.43 -0.5,0.5 -0.5,0.5 -0.5,0.5 l 0,0.5 c 18.992,8.99 36.484,16.99 52.48,23.49 l -84.469,0 c -33.484,-16.5 -70.468,-35.49 -111.453,-57.98 -10.496,16.5 -21.492,35.99 -33.988,57.98 l -116.453,0 c 17.496,-33.49 36.488,-70.47 56.976,-110.46 -10.992,-6.5 -21.988,-12.99 -33.484,-19.49 -144.441,-84.47 -219.414,-126.95 -224.41,-127.45 -5.5,0.5 -11.496,2.5 -17.992,6 -1.5,3.5 -17.992,26.49 -48.981,68.47 -33.988,47.48 -55.98,81.97 -65.476,102.96 l 0,-0.5 c -4.996,10.99 -17.492,37.99 -36.985,80.47 l -43.4802,0 c 11.4961,-24.99 25.4883,-51.98 40.9802,-81.47 50.481,-96.46 87.965,-155.94 112.457,-178.43 4,-6.99 9.996,-12.99 17.993,-18.49 13.996,-9 28.488,-13.5 42.984,-14 3.496,-0.5 80.965,42.99 232.406,129.45 15.492,9 30.488,17.5 44.981,25.49 2.5,0.5 4,0.5 5,0.5 1.5,0.5 2.5,0.5 2.996,1 1.5,1.5 2,2.5 1.5,4 l 0.5,0.5 c 8.496,4.5 16.496,9.5 24.992,13.99 l 1,0 c 1.496,0 2.496,0.5 3.496,1 1.5,2 4.5,4.5 8.996,7.5 l 0,-0.5 c 6,4.5 9.996,6.5 11.496,6.5 0.5,0.5 0.5,0.5 1,0 0.5,0.5 1.5,0.5 2.5,1 2.5,1.5 5.496,3 7.996,4.5 2.5,1.5 4.5,2.5 6.996,4 40.485,21.99 77.469,40.98 110.457,56.97 0.5,-1.5 1.5,-3 3,-4.49 2.997,-16.5 37.985,-91.47 105.457,-225.41 57.977,-114.96 107.457,-210.42 148.442,-286.39 l -0.5,0.5 c 27.99,-56.48 53.98,-107.96 77.47,-154.94 l 38.48,0 c -53.48,105.46 -82.97,164.44 -88.46,176.43 -18.49,38.49 -35.986,74.47 -51.982,107.96 6.996,1.49 18.492,4.49 33.992,7.99 l 0.5,0 c 27.98,8.5 42.98,18 44.98,28.49 0,0.5 0,0.5 0,0.5 0,0 0,0 0,-0.5 25.48,-46.98 38.48,-71.47 39.48,-72.97 l -0.5,0 c 49.98,-96.46 92.97,-178.93 129.45,-247.9 l 44.48,0 c -40.98,77.47 -90.46,169.43 -148.94,274.89 -33.99,66.48 -77.97,153.94 -132.446,261.9 l -0.5,0.5 c -4.996,9.49 -20.992,46.48 -48.481,111.45 -9.996,23.49 -19.492,42.98 -27.988,58.48"
         id="path3044"
         style="fill:#000000;fill-opacity:1;fill-rule:nonzero;stroke:none" /><path
         d="m 570.262,2828.08 c -23.492,-18.49 -47.985,-39.48 -72.473,-62.97 -67.473,-73.47 -115.453,-125.45 -144.941,-154.94 -13.996,-13 -44.985,-24.99 -92.465,-35.49 -20.492,-4.5 -35.985,-11.49 -46.981,-21.49 -19.492,-3 -40.984,-6.49 -65.472,-9.99 -54.9808,-8 -97.4612,-17.5 -127.4495,-27.99 -1,-0.5 -2,-1 -2.5,-2 -0.5,-0.5 -1,-1.5 -1,-3 -0.5,-0.5 0,-1.5 0.5,-2.5 2.5,-4.5 7.4961,-8.5 14.4961,-11.5 3.4961,-16.99 38.9843,-44.98 105.4574,-84.46 35.484,-20.99 62.472,-36.49 80.968,-45.98 0,0 0,0 0.496,0 23.493,-15.5 61.477,-35.49 112.957,-59.48 117.454,-54.48 198.922,-82.47 244.903,-83.47 0,0.5 0.5,0.5 1.5,0 -18.492,-29.48 -38.485,-63.97 -59.977,-102.46 l 43.481,0 c 17.496,34.99 35.488,71.48 54.48,109.96 0,0.5 0,0.5 0.5,1 3.496,3.5 4.996,8 5.496,13.5 0,4.49 -2,8.99 -6.496,13.49 -2,2.5 -7.996,4 -18.492,4.5 -45.984,1 -116.953,20.49 -212.418,58.98 -44.48,17.99 -82.465,34.48 -112.953,49.48 -0.5,0.49 -1,0.99 -1.5,1.49 -5.996,3 -15.992,9 -29.988,18.49 -5.996,4 -11.496,8 -15.993,11.5 -0.5,0.5 -0.5,0.5 -1,0.5 -20.492,10.5 -41.484,22.49 -62.976,36.98 l -0.496,0 c -2.5,1.5 -5,3.5 -7.5,5 -0.5,0 -0.5,0 -0.5,0 -15.492,7.5 -34.485,22 -56.9768,43.49 -1,0.99 -2,1.49 -3.4961,1.49 l -0.5,0 c -0.5,0 -0.5,0 -1,-0.5 -2,1.5 -4,3 -5.5,4 1,0.5 2,0.5 3.5,0.5 l 1,0 c 0.5,0 0.5,0 1,0 19.9919,1.5 49.9809,3.5 89.4649,6 25.488,3 46.98,6.5 64.473,11 l -0.5,-0.5 c 37.984,6 75.468,23.49 111.957,52.48 l 0,-0.5 c 26.488,20.49 69.468,64.97 128.445,132.94 53.48,61.98 98.961,105.96 136.445,132.45 l -49.976,0"
         id="path3046"
         style="fill:#000000;fill-opacity:1;fill-rule:nonzero;stroke:none" /><path
         d="m 620.238,2828.08 c 0.5,0.5 1.5,1.5 2.5,2 57.977,40.48 119.953,59.97 185.926,58.48 32.488,-0.5 61.977,-6.5 87.465,-18.5 22.492,-10.49 39.484,-24.49 51.48,-41.98 l 45.981,0 c -24.988,61.97 -86.965,93.96 -185.926,95.46 -73.969,1.5 -152.937,-29.99 -237.402,-95.46 l 49.976,0"
         id="path3048"
         style="fill:#000000;fill-opacity:1;fill-rule:nonzero;stroke:none" /><path
         d="m 2867.84,2120.36 -46.98,0 c 0.5,-0.5 0.5,-1.5 1,-2.49 13.49,-32.99 48.98,-109.96 106.46,-230.91 16.49,-34.99 38.98,-74.97 67.47,-119.96 l 44.48,0 c -32.48,56.48 -69.97,129.95 -112.45,221.42 -20.5,43.98 -40.49,87.96 -59.98,131.94"
         id="path3050"
         style="fill:#000000;fill-opacity:1;fill-rule:nonzero;stroke:none" /><path
         d="m 2723.9,2120.36 -38.49,0 c -5,-40.48 -7.99,-76.97 -8.49,-109.95 0,-9 0,-16 0.5,-20.49 -0.5,-3 -1,-6 -1,-9.5 -0.5,-30.49 9.99,-74.97 31.98,-133.45 2.5,-7.49 5.5,-14.49 8,-20.99 l 0,0.5 c 0,-1.5 0.5,-2.5 1,-4 0,-0.5 0.5,-1.5 1,-2 5.5,-5.49 8,-15.49 8,-28.98 0,-0.5 0,-1 0,-1.5 2.49,-8.5 4.49,-16 6.99,-23 l 139.95,0 c -22.49,11.5 -40.98,20.5 -55.48,28 -27.99,13.99 -48.98,24.48 -63.47,30.98 -2.5,7.5 -5.5,16 -9,24.99 -15.5,41.99 -24.99,75.97 -28.99,101.96 -1,12.5 -1.5,24.49 -2,36.99 0.5,2.49 0.5,4.49 1,5.99 0,0.5 0,0.5 0,1 0.5,1 0,2 -1,3.5 0,2 0,4 0,5.5 0.5,33.49 4,71.47 9.5,114.45"
         id="path3052"
         style="fill:#000000;fill-opacity:1;fill-rule:nonzero;stroke:none" /><path
         d="m 678.215,2120.36 -30.985,0 c -9.996,-51.47 -25.492,-103.45 -45.984,-156.93 -18.992,-44.48 -31.984,-75.97 -38.484,-94.47 -11.496,-29.48 -17.992,-53.97 -18.992,-72.47 -15.993,-9.99 -31.985,-19.99 -47.481,-29.49 l 72.973,0 c 1.996,5.5 8.996,21.5 20.492,47.49 0.496,0.99 0.496,1.99 0.496,2.99 10.496,31.99 24.492,75.48 40.984,130.45 l 0,0.5 c 20.493,67.48 35.989,124.45 46.981,171.93"
         id="path3054"
         style="fill:#000000;fill-opacity:1;fill-rule:nonzero;stroke:none" /><path
         d="m 518.281,2120.36 c -5,-8.49 -9.996,-17.99 -14.996,-27.48 C 465.801,2022.4 437.812,1970.43 419.32,1935.94 385.832,1875.46 350.348,1819.48 313.863,1767 l 46.981,0 c 57.476,86.47 124.449,203.93 200.918,353.36 l -43.481,0"
         id="path3056"
         style="fill:#000000;fill-opacity:1;fill-rule:nonzero;stroke:none" /><path
         d="m 568.762,1765.51 c 0,0.5 0,0.99 0.5,1.49 l -72.973,0 c -16.492,-9.99 -32.988,-19.99 -48.98,-29.48 -78.469,-45.48 -132.946,-69.97 -164.434,-73.47 23.492,26.99 49.48,61.47 77.969,102.95 l -46.981,0 c -12.496,-18.49 -25.492,-35.98 -38.984,-53.47 l 0,0.5 c -42.984,-51.48 -63.977,-77.97 -63.477,-79.47 0,-0.5 0,-0.5 0,-1 1.5,-6 2,-10.5 2,-13.5 0,-1.49 0.5,-2.49 1.5,-3.49 0.5,-0.5 1.5,-1 3,-1.5 l 18.993,-1 c 16.492,-0.5 77.468,21.49 182.425,65.47 39.485,16.5 76.969,35.49 113.453,56.98 3.5,2.5 7,4.5 10.497,6.5 154.437,-79.47 347.363,-139.45 578.77,-179.93 26.49,-4.5 53.98,-9 81.47,-13.5 -2.5,-16.49 -4.5,-61.97 -6,-136.44 l 38.98,0 c 0.5,26.49 1.5,53.97 2,82.96 l 0,0.5 c 0,7.5 0,14.5 0.5,22 0,10.49 0,18.99 0,25.48 153.94,-21.49 316.88,-33.48 488.31,-36.48 76.47,-1.5 155.93,-3 239.4,-4.5 l 0.5,0 c 35.49,1.5 80.97,5.5 136.94,13 -0.5,-34.49 -1,-68.48 -1.49,-102.96 l 66.47,0 2,113.45 c 22.49,3.5 46.48,7 71.97,11.5 158.44,26.99 265.89,46.98 322.37,60.47 134.45,31.49 201.42,63.48 200.92,95.47 0,4.99 0,8.49 -0.5,10.99 1.5,2.5 2.5,4.5 3.5,6.5 0,0.5 0,0.5 0.5,1 3.5,9.49 6,17.49 8.5,23.49 0.5,1 0.5,2 0,3 -0.5,1 -0.5,2 -1,2.5 0,1 0,1.5 0,2 0,3.49 -1,9.49 -3,17.99 34.48,-17.49 83.46,-37.99 147.94,-61.98 61.47,-22.99 109.95,-40.48 146.44,-52.48 0.5,0 0.5,0 1,-0.5 3.5,0 7,-0.5 10.49,-2 0.5,0 1,0 1.5,-0.5 1.5,0 3.5,-0.5 5.5,-1.5 0.5,0 1,0 1.5,-0.5 6.5,-0.5 10.5,-1.5 12.5,-2 0.5,-0.5 1.5,-0.5 2,-0.5 2.5,0 5,0.5 7.99,1.5 0,0.5 0,0.5 0.5,0.5 2.5,1 3.5,4 4,9 -0.5,1.5 -1,2.5 -1.5,3.5 -5.5,6.5 -8.49,12 -9.99,16.49 -0.5,1 -1,2 -1.5,2.5 l -0.5,0.5 c -18.5,22.5 -38.99,53.48 -61.98,93.46 l -44.48,0 c 9.5,-15.49 19.99,-31.48 31.49,-48.48 6.99,-9.99 13.49,-19.49 19.99,-27.98 -39.98,12.99 -72.47,25.49 -97.96,37.48 l 0.5,0 c -29.49,15 -54.98,27.99 -76.47,38.98 l -139.95,0 c 2,-7.49 4,-13.99 6,-19.99 0.5,-1.49 0.5,-2.99 0.5,-3.99 -0.5,-7.5 -6.5,-18 -17.99,-30.49 -4.5,-4.5 -8.5,-9 -11.5,-12.5 -90.46,-36.48 -162.43,-59.98 -215.91,-71.47 -130.95,-27.49 -216.41,-44.48 -255.9,-49.98 -25.49,-3.5 -48.98,-7 -70.97,-10.49 -0.5,0 -1.5,0 -2,-0.5 -4,-2 -10.5,-3 -18.99,-3 -1,0 -2,0 -2.5,-0.5 -1,-0.5 -2,-0.5 -3,-1 l -4,0.5 c -0.5,0.5 -1,0.5 -1.5,0 -86.96,-12 -146.44,-19 -177.93,-21 -31.48,-1.99 -107.95,-1.99 -228.4,0 -142.45,2.5 -228.41,5 -257.9,7.5 -64.47,5.5 -174.43,21.49 -329.87,47.98 -96.46,16.5 -221.909,49.48 -375.35,99.96 -102.457,35.49 -167.93,57.48 -196.418,65.98 -0.5,0.5 -0.5,1 -1,1.5"
         id="path3058"
         style="fill:#000000;fill-opacity:1;fill-rule:nonzero;stroke:none" /><path
         d="m 1236.49,1413.15 -38.98,0 c -1,-32.99 -2,-71.47 -2.5,-115.95 0,-1 0,-2 0.5,-2.5 -2.5,-97.47 -4,-164.44 -4.5,-201.92 0,-1.5 0,-3.5 0,-5.5 0,-2 0,-4 0,-6.5 0,-3 0,-5.5 0.5,-7.99 0,-3.5 0,-7 0,-10.5 0,-0.5 0.5,-1.5 1,-2.5 L 1205,1039.3 c 0.5,-0.5 1,-1 2,-1.5 0.5,-0.5 1,-0.5 2,-1 9,-11.5 22,-22.99 38.49,-33.49 -23.49,-39.982 -61.48,-117.951 -114.95,-233.904 -10.5,-22.492 -20.5,-43.984 -29.49,-63.476 l 40.98,0 c 36.99,76.968 79.97,170.933 129.45,281.886 18.49,-9.496 39.98,-18.992 64.97,-27.488 C 1317.96,922.844 1274.48,838.379 1209,705.93 l 48.98,0 c 0.5,1 1,2 1.5,2.5 68.98,133.945 103.46,211.914 103.96,233.406 0.5,3.5 -1.5,7.496 -5.49,11.996 23.48,-7 48.98,-13.996 76.96,-20.992 81.47,-18.992 166.44,-31.988 255.9,-39.485 0.5,0 25.99,1 77.47,3.5 60.98,3.997 116.95,9.497 167.93,16.993 20.49,3.496 39.99,6.496 57.98,9.996 38.49,-81.969 71.97,-154.438 100.96,-217.914 l 37.98,0 c -53.97,113.953 -89.96,188.925 -107.95,224.41 40.48,8.996 73.47,19.492 97.96,30.988 12.99,-31.988 39.98,-94.461 81.47,-187.926 10.49,-24.488 20.49,-46.98 29.98,-67.472 l 42.49,0 c -13,29.488 -27.49,62.976 -43.99,100.461 -37.48,85.464 -63.97,142.941 -79.47,172.429 2.5,2 5,4 7.5,6 0.5,0.5 0.5,1.496 1,1.996 0.5,2 2,3.5 4,5 l 0,0.5 c 5.5,3.996 8,8.494 8,13.494 l 0,0.5 c -4.5,76.97 -6.5,128.95 -6,156.44 0,5 0.5,8.99 1,11.49 0.5,0.5 0.5,1 0.5,1.5 -2.5,25.49 -3.5,61.48 -3,108.96 l 2.5,128.45 -66.47,0 c -1,-30.99 -2,-61.98 -3.5,-93.47 -6.5,-142.44 -24.99,-238.9 -55.48,-289.38 -4,-5.5 -12.49,-14 -25.99,-26.49 -115.45,-25.49 -230.91,-36.986 -347.36,-34.986 -28.49,0.5 -65.47,4.5 -110.96,11.996 -59.47,9.496 -96.46,15.492 -111.95,16.992 -50.48,5.498 -101.96,22.488 -154.44,50.978 -0.5,0 -0.5,0 -0.5,0 -35.49,23 -57.98,36.49 -67.47,40.99 3.5,49.98 7,157.93 11.49,323.37"
         id="path3060"
         style="fill:#000000;fill-opacity:1;fill-rule:nonzero;stroke:none" /><path
         d="m 778.176,92.6758 c -0.5,-27.4883 6.5,-50.4805 19.992,-68.4727 12.496,-16.49216 27.488,-24.988256 44.484,-25.48826 2.496,0.500004 4.496,1.000004 6.996,1.496098 4.497,-0.996094 9.497,-1.496098 15.493,-1.496098 32.988,-1 58.476,21.98826 75.972,68.47266 5.496,13.4922 13.992,37.4845 25.489,71.9685 11.496,32.989 24.488,61.977 38.488,86.965 10.49,19.492 30.48,51.981 58.97,97.961 26.99,45.484 46.98,83.969 59.98,115.453 9.5,23.492 54.48,112.457 133.94,266.395 l -48.98,0 C 1169.02,624.961 1121.04,526.504 1064.56,410.047 945.109,165.148 879.137,39.6953 866.641,33.6992 c -10.496,5.4961 -17.993,8.4961 -22.993,9.9961 -1.496,0.5 -2.496,0 -3.496,-0.5 -0.5,0 -1.5,0 -2,-0.5 -1,0.5 -2,1 -2.5,1.5 -14.992,10.4961 -21.988,33.4883 -21.488,67.9727 0.496,1.5 74.969,131.449 223.906,390.844 26.99,44.48 62.48,111.953 105.96,202.918 l -40.98,0 C 1063.06,621.465 1034.57,564.488 1017.08,535.5 858.145,274.102 778.676,126.664 778.176,92.6758"
         id="path3062"
         style="fill:#000000;fill-opacity:1;fill-rule:nonzero;stroke:none" /><path
         d="m 2277.08,705.93 -42.49,0 c 42.49,-95.961 69.98,-154.438 81.97,-175.93 40.48,-76.469 111.46,-222.41 212.92,-438.3242 -7,-8.4961 -16,-17.4922 -27.49,-27.9883 -18.49,-15.4922 -30.49,-23.4922 -36.49,-23.9922 -14.49,1.5 -92.96,153.4417 -234.41,456.3207 -37.48,80.464 -70.47,150.437 -97.96,209.914 l -37.98,0 c 56.48,-123.45 95.96,-211.914 117.45,-265.895 30.49,-77.469 62.98,-152.437 97.96,-224.91 C 2378.54,74.6836 2430.52,4.71094 2466.5,4.71094 c 0.5,0 16.5,4.99609 48.98,14.49216 0.5,0 0.5,0 1,0 33.99,15.4961 50.98,36.9883 50.98,63.9766 0,1 0,2 0.5,2.5 -0.5,0.5 -0.5,1.5 -0.5,1.9961 -2.5,5 -5,11.9961 -8.5,20.9922 -0.5,1.5 -1.5,2.5 -3,3 -7.49,25.988 -35.98,90.465 -86.46,192.922 -66.97,132.949 -108.46,215.414 -123.95,246.902 -4.5,8.996 -26.99,60.477 -68.47,154.438"
         id="path3064"
         style="fill:#000000;fill-opacity:1;fill-rule:nonzero;stroke:none" /><path
         d="m 1617.84,2304.79 34.99,35.99 -335.37,25.99 53.48,-28.99 c 24.49,-45.48 35.99,-95.96 35.49,-151.44 -2.5,-120.95 -2,-242.91 2.5,-365.36 0.5,-16.99 1.49,-34.48 2.99,-51.98 1.5,-26.48 -2,-51.97 -10.49,-76.96 -9,-25.99 -27.99,-35.49 -56.98,-28.99 -9,9.49 -16.49,19.49 -21.99,29.99 -44.98,84.46 -91.96,167.43 -140.44,248.4 24.98,0.5 47.98,6.99 69.47,18.99 35.98,22.49 59.97,54.48 71.97,96.46 15.49,55.48 15.99,111.95 2,168.43 -11.5,45.48 -34.99,83.97 -69.98,115.46 -5.99,4.99 -11.49,9.99 -16.49,15.49 -33.49,30.49 -74.47,47.48 -121.95,50.48 -146.938,13.99 -289.384,46.48 -426.829,96.96 l -2.5,-4 c 11.496,-11.49 22.492,-23.49 32.488,-36.48 55.477,-73.47 81.469,-156.44 78.969,-249.9 -2.5,-74.97 -9.496,-149.94 -21.992,-224.41 -1.996,-11.5 -4.496,-22.49 -6.996,-33.49 -6.496,-24.49 -16.492,-47.48 -28.989,-69.97 -19.492,-32.99 -48.98,-52.98 -89.464,-60.48 l 7.496,-7.5 c 25.492,-5.49 50.48,-11.99 75.472,-19.49 0.5,0 0.5,0 1,0 2.996,0 5.996,-1 9.496,-3.49 63.973,-19 126.45,-42.49 187.422,-70.98 19.492,72.47 30.489,145.94 33.489,221.41 l 33.988,-20.49 c 19.99,-64.47 42.98,-127.45 68.97,-187.92 15.49,-36.49 40.98,-61.48 76.47,-75.97 3.5,-0.5 7.5,-1.5 11.49,-3 44.49,-4.5 89.47,-11.5 133.95,-21.49 123.45,-24.49 247.4,-39.99 371.85,-45.98 l 6,7.99 c -6,4.5 -12,9 -17.99,12.5 -17.49,11.49 -31.49,25.99 -41.99,43.98 l -3.99,93.46 86.46,131.95 c 45.98,-84.46 88.47,-169.93 127.45,-256.4 l -51.48,-36.98 c 36.49,4.49 73.47,8.99 111.95,14.49 91.97,8.5 183.93,16 275.89,23.49 -22.98,4.5 -44.48,12 -64.97,22.49 -6.5,4 -12.49,8 -18.49,11.5 -25.99,17.99 -47.48,39.98 -64.98,65.97 -71.97,109.46 -140.44,220.91 -205.41,333.37 16.49,24.49 32.48,49.48 47.98,74.47 56.48,93.96 132.45,168.43 227.41,222.91 -75.47,-11.5 -150.94,-15.49 -227.41,-12.99 l 55.98,-37.99 -303.88,-460.81 c -0.5,58.47 -4.5,116.95 -11,174.93 -11.49,98.46 -2.5,193.92 27.49,286.38 z m -464.81,-129.45 c 4.49,-129.95 -50.48,-188.92 -164.936,-176.43 -5.5,2.5 -10.996,4.5 -16.496,7 11.996,123.95 18.992,247.4 20.992,370.85 103.46,-23.49 156.94,-90.46 160.44,-201.42"
         id="path3066"
         style="fill:#000000;fill-opacity:1;fill-rule:nonzero;stroke:none" /><path
         d="m 2467.5,2415.25 11.5,-5 c -64.48,-102.96 -44.48,-164.94 59.97,-185.93 10.5,-2.5 18.49,2.5 24.99,14 57.98,112.45 27.49,179.93 -91.96,201.41 -103.96,18.5 -190.93,-10.99 -260.9,-87.46 -72.97,-79.47 -116.95,-172.93 -132.44,-280.89 -13.5,-93.46 -2,-181.42 34.48,-263.89 43.48,-97.96 120.95,-146.44 231.41,-144.94 22.49,1 44.98,2.5 67.47,4.5 28.99,16.49 43.48,24.99 43.98,24.99 l 3,-0.5 c 1,-1.5 0.5,-4 -1,-7 -0.5,-3 2.5,-4.5 8.5,-4.5 5.5,-0.5 15,1 28.49,4.5 0.5,0.5 1.5,1.5 2,2 0.5,0.5 1.5,0.5 2.5,0.5 3,2.5 4.99,3.5 6.49,3.5 0.5,-0.5 1,-1 1.5,-1.5 7.5,2 18.5,4.5 32.49,8 7.5,2.49 15.49,5.49 24.49,7.99 44.99,14.49 78.97,27.49 101.96,38.49 -0.5,2.5 -0.5,4.99 -0.5,7.49 -8.49,19.49 -21.99,67.97 -41.48,145.44 -1.5,6.5 -5,29.49 -9.5,69.98 -1.5,11.49 -2.5,21.49 -3,30.48 -0.5,3.5 -1.5,7 -1.99,10.5 -2.5,14.99 -4,30.99 -4.5,48.48 -1,3 -1.5,7 -1.5,11.5 0,4.49 3,9.99 8.49,17.49 1.5,3 4,6 6.5,8.5 -6.5,-1.5 -13.99,-3 -22.49,-5 -1.5,-0.5 -3,-1.5 -4,-2 -96.46,-19.49 -193.42,-34.49 -289.88,-43.99 -0.5,151.45 54.47,275.4 164.93,372.86 z m -28.49,-456.82 c 5.5,-9.5 10.5,-19.49 14.5,-30.49 38.98,-79.97 32.48,-151.94 -19.99,-216.41 -3,-3.5 -6,-6.5 -9,-9 l -32.99,5 c -61.48,89.46 -92.46,188.42 -91.96,295.88 60.97,20.99 107.45,6 139.44,-44.98"
         id="path3068"
         style="fill:#000000;fill-opacity:1;fill-rule:nonzero;stroke:none" /></g></g></svg>